<svg width="100" height="100" viewBox="0 0 100 100" fill="#FAD3B4" xmlns="http://www.w3.org/2000/svg">
<path d="M80.125 63.5833L69.5417 62.375C68.2973 62.2288 67.0359 62.3666 65.8524 62.778C64.6688 63.1893 63.5939 63.8635 62.7084 64.75L55.0417 72.4167C43.2133 66.4009 33.5991 56.7867 27.5834 44.9583L35.2917 37.25C37.0834 35.4583 37.9584 32.9583 37.6667 30.4167L36.4584 19.9167C36.2222 17.8841 35.2467 16.0093 33.7177 14.6494C32.1887 13.2894 30.213 12.5392 28.1667 12.5417H20.9584C16.25 12.5417 12.3334 16.4583 12.625 21.1667C14.8334 56.75 43.2917 85.1667 78.8334 87.375C83.5417 87.6667 87.4584 83.75 87.4584 79.0417V71.8333C87.5 67.625 84.3334 64.0833 80.125 63.5833Z" fill="#FAD3B4"/>
</svg>
