<svg width="94" height="100" viewBox="0 0 94 100" fill="#fad3b4" xmlns="http://www.w3.org/2000/svg">
<path d="M46.875 87.5C45.125 87.5 43.75 86.125 43.75 84.375V34.375C43.75 32.625 45.125 31.25 46.875 31.25C48.625 31.25 50 32.625 50 34.375V84.375C50 86.125 48.625 87.5 46.875 87.5Z" fill="#fad3b4"/>
<path d="M65.625 56.25C65.2152 56.255 64.8088 56.1742 64.4321 56.0127C64.0553 55.8513 63.7165 55.6127 63.4375 55.3125L46.875 38.75L30.3125 55.3125C29.0625 56.5625 27.125 56.5625 25.875 55.3125C24.625 54.0625 24.625 52.125 25.875 50.875L44.625 32.125C45.875 30.875 47.8125 30.875 49.0625 32.125L67.8125 50.875C69.0625 52.125 69.0625 54.0625 67.8125 55.3125C67.1875 55.9375 66.375 56.25 65.625 56.25Z" fill="#fad3b4"/>
<path d="M62.9374 80.875C61.7499 80.875 60.6249 80.1875 60.1249 79.0625C59.4374 77.5 60.1249 75.625 61.6874 74.9375C73.6249 69.5 81.3124 57.8125 81.3124 45.125C81.3124 26.9375 65.8749 12.125 46.9374 12.125C27.9999 12.125 12.4999 26.9375 12.4999 45.125C12.4999 57.75 20.1874 69.5 32.1249 74.9375C33.6874 75.625 34.3749 77.5 33.6874 79.0625C32.9999 80.625 31.1249 81.3125 29.5624 80.625C15.4374 74.1875 6.31242 60.25 6.31242 45.125C6.24992 23.4375 24.4999 5.875 46.8749 5.875C69.2499 5.875 87.4999 23.5 87.4999 45.125C87.4999 60.1875 78.3749 74.125 64.2499 80.625C63.8124 80.8125 63.3749 80.9375 62.9374 80.9375V80.875Z" fill="#fad3b4"/>
</svg>
