<svg width="101" height="100" viewBox="0 0 101 100" fill="#fad3b4" xmlns="http://www.w3.org/2000/svg">
<path fill-rule="evenodd" clip-rule="evenodd" d="M21.5833 12.5H79.9166L37.4833 54.9333C36.798 53.1777 35.6835 51.6219 34.2416 50.4083C33.2916 49.5833 31.9624 48.8375 29.3124 47.3417L17.1749 40.5083C13.2208 38.2875 11.2458 37.175 10.1666 35.3833C9.08325 33.5875 9.08325 31.4208 9.08325 27.0958V24.2208C9.08325 18.6958 9.08325 15.9292 10.9166 14.2125C12.7416 12.5 15.6874 12.5 21.5833 12.5Z" fill="#fad3b4"/>
<path opacity="0.5" d="M92.4167 27.1V24.225C92.4167 18.7 92.4167 15.9333 90.5834 14.2167C88.7584 12.5 85.8126 12.5 79.9167 12.5L37.4792 54.9333C37.6876 55.4708 37.8542 56.0292 37.9834 56.6125C38.2501 57.8 38.2501 59.1917 38.2501 61.9708V73.0958C38.2501 76.8833 38.2501 78.7792 39.3001 80.2542C40.3501 81.7333 42.2167 82.4625 45.9417 83.9208C53.7709 86.9792 57.6834 88.5083 60.4667 86.7667C63.2501 85.0292 63.2501 81.05 63.2501 73.0917V61.9667C63.2501 59.1917 63.2501 57.8 63.5126 56.6125C64.037 54.1834 65.3566 51.9987 67.2626 50.4042C68.2084 49.5833 69.5334 48.8375 72.1876 47.3417L84.3251 40.5083C88.2751 38.2875 90.2542 37.175 91.3334 35.3833C92.4167 33.5917 92.4167 31.425 92.4167 27.1Z" fill="#fad3b4"/>
</svg>
