<svg width="100" height="100" viewBox="0 0 100 100" fill="#FAD3B4" xmlns="http://www.w3.org/2000/svg">
<g clip-path="url(#clip0_2_13)">
<path d="M95 45.995H90.1C87.335 45.995 85.1 47.79 85.1 50C85.1 52.205 87.335 53.995 90.1 53.995H95C97.76 53.995 100 52.21 100 50C100 47.795 97.755 45.995 95 45.995ZM50 22.5C46.3855 22.4888 42.8045 23.1924 39.4629 24.5705C36.1214 25.9485 33.0854 27.9737 30.5295 30.5295C27.9737 33.0854 25.9485 36.1214 24.5705 39.4629C23.1924 42.8045 22.4888 46.3855 22.5 50C22.5 65.255 34.745 77.5 50 77.5C65.25 77.5 77.5 65.255 77.5 50C77.5 34.745 65.245 22.5 50 22.5ZM50 70C38.945 70 30 61.045 30 50C30 38.945 38.945 30 50 30C55.3043 30 60.3914 32.1071 64.1421 35.8579C67.8929 39.6086 70 44.6957 70 50C70 55.3043 67.8929 60.3914 64.1421 64.1421C60.3914 67.8929 55.3043 70 50 70ZM15 50C15 47.795 12.755 45.995 10 45.995H5C2.235 45.995 0 47.79 0 50C0 52.205 2.235 53.995 5 53.995H10C12.755 53.995 15 52.205 15 50ZM50 15C52.205 15 53.995 12.765 53.995 10V5C53.995 2.235 52.205 0 50 0C47.79 0 45.995 2.235 45.995 5V10C45.995 12.765 47.79 15 50 15ZM50 85C47.79 85 45.995 87.235 45.995 90V95C45.995 97.765 47.79 100 50 100C52.205 100 53.995 97.765 53.995 95V90C53.995 87.235 52.205 85 50 85ZM86.825 18.83C88.78 16.875 89.095 14.025 87.535 12.465C85.975 10.905 83.12 11.225 81.175 13.18L77.675 16.675C75.72 18.63 75.405 21.48 76.965 23.04C78.525 24.6 81.38 24.28 83.33 22.325L86.825 18.83ZM16.67 77.665L13.17 81.17C11.215 83.125 10.9 85.965 12.46 87.525C14.02 89.085 16.875 88.775 18.82 86.82L22.32 83.325C24.275 81.37 24.59 78.52 23.03 76.955C21.47 75.39 18.615 75.72 16.67 77.665ZM18.825 13.175C16.875 11.22 14.02 10.9 12.46 12.46C10.9 14.02 11.22 16.875 13.165 18.83L16.665 22.325C18.62 24.28 21.465 24.6 23.025 23.04C24.585 21.48 24.27 18.625 22.32 16.675L18.825 13.175ZM77.67 83.33L81.17 86.825C83.125 88.78 85.97 89.09 87.53 87.54C89.09 85.98 88.775 83.125 86.82 81.175L83.325 77.68C81.37 75.725 78.52 75.405 76.955 76.965C75.39 78.525 75.715 81.375 77.67 83.33Z" fill="#FAD3B4"/>
</g>
<defs>
<clipPath id="clip0_2_13">
<rect width="100" height="100" fill="white"/>
</clipPath>
</defs>
</svg>
