<svg width="100" height="100" viewBox="0 0 100 100" fill="#FAD3B4" xmlns="http://www.w3.org/2000/svg">
<path d="M15.6253 43.7464C14.7964 43.7464 14.0015 43.4171 13.4154 42.831C12.8293 42.2449 12.5 41.45 12.5 40.6211V15.6253C12.5 14.7964 12.8293 14.0015 13.4154 13.4154C14.0015 12.8293 14.7964 12.5 15.6253 12.5H40.6273C41.4562 12.5 42.2511 12.8293 42.8372 13.4154C43.4233 14.0015 43.7526 14.7964 43.7526 15.6253V40.6211C43.7526 41.45 43.4233 42.2449 42.8372 42.831C42.2511 43.4171 41.4562 43.7464 40.6273 43.7464H15.6253ZM59.3789 43.7464C58.55 43.7464 57.7551 43.4171 57.169 42.831C56.5829 42.2449 56.2536 41.45 56.2536 40.6211V15.6253C56.2536 14.7964 56.5829 14.0015 57.169 13.4154C57.7551 12.8293 58.55 12.5 59.3789 12.5H84.3747C85.2036 12.5 85.9985 12.8293 86.5846 13.4154C87.1707 14.0015 87.5 14.7964 87.5 15.6253V40.6211C87.5 41.45 87.1707 42.2449 86.5846 42.831C85.9985 43.4171 85.2036 43.7464 84.3747 43.7464H59.3789ZM15.6253 87.5C14.7964 87.5 14.0015 87.1707 13.4154 86.5846C12.8293 85.9985 12.5 85.2036 12.5 84.3747V59.3727C12.5 58.5438 12.8293 57.7489 13.4154 57.1628C14.0015 56.5767 14.7964 56.2474 15.6253 56.2474H40.6273C41.4562 56.2474 42.2511 56.5767 42.8372 57.1628C43.4233 57.7489 43.7526 58.5438 43.7526 59.3727V84.3747C43.7526 85.2036 43.4233 85.9985 42.8372 86.5846C42.2511 87.1707 41.4562 87.5 40.6273 87.5H15.6253ZM59.3789 87.5C58.55 87.5 57.7551 87.1707 57.169 86.5846C56.5829 85.9985 56.2536 85.2036 56.2536 84.3747V59.3727C56.2536 58.5438 56.5829 57.7489 57.169 57.1628C57.7551 56.5767 58.55 56.2474 59.3789 56.2474H84.3747C85.2036 56.2474 85.9985 56.5767 86.5846 57.1628C87.1707 57.7489 87.5 58.5438 87.5 59.3727V84.3747C87.5 85.2036 87.1707 85.9985 86.5846 86.5846C85.9985 87.1707 85.2036 87.5 84.3747 87.5H59.3789Z" fill="#FAD3B4"/>
</svg>
