<svg width="100" height="100" viewBox="0 0 100 100" fill="#fad3b4" xmlns="http://www.w3.org/2000/svg">
<path d="M39.4167 18.05C44.7501 12.1375 53.1084 8.33334 62.5001 8.33334C78.6084 8.33334 91.6667 19.525 91.6667 33.3333C91.6667 41.6208 86.9584 48.9667 79.7167 53.5167C79.5363 53.6272 79.3529 53.7327 79.1667 53.8333V70.7083C79.1667 71.5379 78.919 72.3486 78.4554 73.0366C77.9919 73.7245 77.3335 74.2585 76.5646 74.57C75.7957 74.8814 74.9513 74.9563 74.1396 74.785C73.3279 74.6137 72.5858 74.204 72.0084 73.6083L67.2584 68.7167C71.7126 63.45 74.3334 56.9833 74.3334 49.9958C74.3334 33.05 58.9251 19.1833 39.4167 18.05Z" fill="#fad3b4"/>
<path d="M43.2709 74.525L27.9917 90.275C27.4143 90.8706 26.6722 91.2804 25.8605 91.4517C25.0488 91.623 24.2044 91.5481 23.4355 91.2366C22.6667 90.9251 22.0083 90.3912 21.5447 89.7032C21.0811 89.0153 20.8334 88.2046 20.8334 87.375V70.5C20.6472 70.3994 20.4638 70.2938 20.2834 70.1833C13.0375 65.6333 8.33337 58.2875 8.33337 50C8.33337 36.1917 21.3917 25 37.5 25C53.6084 25 66.6667 36.1917 66.6667 50C66.6667 61.3583 57.8292 70.95 45.725 73.9917C44.9138 74.1996 44.0952 74.3775 43.2709 74.525Z" fill="#fad3b4"/>
</svg>
