<svg width="100" height="100" viewBox="0 0 100 100" fill="#fad3b4" xmlns="http://www.w3.org/2000/svg">
<g clip-path="url(#clip0_2_25)">
<path d="M91.2499 78.1389L90.3055 77.3055C87.6269 74.9176 85.2818 72.1801 83.3333 69.1667C81.204 65.0079 79.929 60.4649 79.5833 55.8055V42.0833C79.6017 34.7656 76.9472 27.693 72.1187 22.1944C67.2901 16.6957 60.6198 13.1496 53.3611 12.2222V8.63887C53.3611 7.65536 52.9704 6.71214 52.2749 6.01669C51.5795 5.32124 50.6362 4.93054 49.6527 4.93054C48.6692 4.93054 47.726 5.32124 47.0305 6.01669C46.3351 6.71214 45.9444 7.65536 45.9444 8.63887V12.2778C38.7507 13.272 32.161 16.8396 27.3959 22.3197C22.6307 27.7999 20.0131 34.8212 20.0277 42.0833V55.8055C19.682 60.4649 18.407 65.0079 16.2777 69.1667C14.3635 72.1732 12.056 74.9104 9.41661 77.3055L8.47217 78.1389V85.9722H91.2499V78.1389Z" fill="#fad3b4"/>
<path d="M42.5555 88.8889C42.7991 90.6497 43.6716 92.2628 45.0119 93.4304C46.3522 94.598 48.0697 95.2413 49.8472 95.2413C51.6247 95.2413 53.3423 94.598 54.6825 93.4304C56.0228 92.2628 56.8953 90.6497 57.1389 88.8889H42.5555Z" fill="#fad3b4"/>
</g>
<defs>
<clipPath id="clip0_2_25">
<rect width="100" height="100" fill="#fad3b4"/>
</clipPath>
</defs>
</svg>
