<svg width="100" height="100" viewBox="0 0 100 100" fill="#FAD3B4" xmlns="http://www.w3.org/2000/svg">
<path d="M66.6666 70.8333V79.1667H8.33325V70.8333C8.33325 70.8333 8.33325 54.1667 37.4999 54.1667C66.6666 54.1667 66.6666 70.8333 66.6666 70.8333ZM52.0833 31.25C52.0833 28.3657 51.228 25.5462 49.6255 23.1479C48.0231 20.7497 45.7455 18.8805 43.0807 17.7768C40.416 16.673 37.4837 16.3842 34.6548 16.9469C31.826 17.5096 29.2275 18.8985 27.1879 20.938C25.1484 22.9775 23.7595 25.576 23.1968 28.4049C22.6341 31.2338 22.9229 34.166 24.0267 36.8308C25.1305 39.4956 26.9996 41.7732 29.3979 43.3756C31.7961 44.978 34.6156 45.8333 37.4999 45.8333C41.3677 45.8333 45.077 44.2969 47.8119 41.562C50.5468 38.8271 52.0833 35.1177 52.0833 31.25ZM66.4166 54.1667C68.978 56.149 71.074 58.6685 72.5569 61.548C74.0398 64.4274 74.8737 67.5969 74.9999 70.8333V79.1667H91.6666V70.8333C91.6666 70.8333 91.6666 55.7083 66.4166 54.1667ZM62.4999 16.6667C59.6323 16.6533 56.8282 17.5106 54.4582 19.125C56.9893 22.6614 58.3501 26.9012 58.3501 31.25C58.3501 35.5988 56.9893 39.8386 54.4582 43.375C56.8282 44.9895 59.6323 45.8467 62.4999 45.8333C66.3677 45.8333 70.077 44.2969 72.8119 41.562C75.5468 38.8271 77.0832 35.1177 77.0832 31.25C77.0832 27.3823 75.5468 23.6729 72.8119 20.938C70.077 18.2031 66.3677 16.6667 62.4999 16.6667Z" fill="#FAD3B4"/>
</svg>
