<svg width="100" height="100" viewBox="0 0 100 100" fill="#fad3b4" xmlns="http://www.w3.org/2000/svg">
<path d="M15.3335 54.1667L13.1335 56.3833C13.7187 56.9635 14.5094 57.289 15.3335 57.289C16.1575 57.289 16.9482 56.9635 17.5335 56.3833L15.3335 54.1667ZM24.5335 49.4417C25.1225 48.8571 25.4551 48.0625 25.4582 47.2326C25.4614 46.4028 25.1347 45.6057 24.5501 45.0167C24.2607 44.725 23.9166 44.4933 23.5376 44.3346C23.1585 44.1759 22.752 44.0934 22.3411 44.0919C21.5112 44.0888 20.7141 44.4154 20.1251 45L24.5335 49.4417ZM10.5335 45C9.94175 44.4328 9.15087 44.1207 8.33126 44.1311C7.51164 44.1415 6.72892 44.4735 6.15178 45.0555C5.57465 45.6376 5.24931 46.4231 5.24588 47.2428C5.24245 48.0624 5.56121 48.8506 6.13345 49.4375L10.5335 45ZM77.5668 30.8C77.7763 31.1607 78.0558 31.4758 78.389 31.7268C78.7222 31.9777 79.1022 32.1595 79.5067 32.2612C79.9112 32.363 80.332 32.3827 80.7443 32.3193C81.1566 32.2559 81.552 32.1106 81.9072 31.8919C82.2624 31.6733 82.5702 31.3858 82.8126 31.0463C83.0549 30.7068 83.2269 30.3222 83.3182 29.9152C83.4096 29.5082 83.4186 29.0871 83.3446 28.6766C83.2707 28.2661 83.1153 27.8745 82.8876 27.525L77.5668 30.8ZM50.3293 9.37501C29.3001 9.37501 12.2043 26.2958 12.2043 47.2208H18.4543C18.4543 29.7958 32.7043 15.625 50.3293 15.625V9.37501ZM12.2043 47.2208V54.1667H18.4543V47.2208H12.2043ZM17.5376 56.3875L24.5335 49.4417L20.1251 45L13.1251 51.9458L17.5376 56.3875ZM17.5376 51.95L10.5335 45L6.12929 49.4375L13.1293 56.3792L17.5376 51.95ZM82.8876 27.5333C79.467 21.9754 74.6782 17.3877 68.9787 14.2086C63.2792 11.0294 56.8554 9.36525 50.3293 9.37501V15.625C55.7887 15.6137 61.1638 17.0033 65.9326 19.6609C70.7015 22.3185 74.7087 26.1553 77.5709 30.8042L82.8876 27.5333ZM84.6418 45.8333L86.8376 43.6125C86.2527 43.0349 85.4638 42.711 84.6418 42.711C83.8198 42.711 83.0308 43.0349 82.4459 43.6125L84.6418 45.8333ZM75.4168 50.5542C75.1249 50.8428 74.8927 51.1861 74.7334 51.5645C74.5742 51.9429 74.491 52.3489 74.4887 52.7594C74.484 53.5885 74.8089 54.3855 75.3918 54.975C75.9747 55.5646 76.7679 55.8984 77.597 55.9031C78.4261 55.9078 79.2231 55.5829 79.8126 55L75.4168 50.5542ZM89.4709 55C89.7612 55.2962 90.1074 55.5316 90.4895 55.6926C90.8717 55.8536 91.282 55.937 91.6967 55.9378C92.1113 55.9386 92.522 55.8569 92.9048 55.6975C93.2875 55.538 93.6347 55.3039 93.9261 55.0089C94.2175 54.7139 94.4473 54.3639 94.6021 53.9792C94.7569 53.5945 94.8335 53.1829 94.8276 52.7682C94.8217 52.3536 94.7333 51.9443 94.5677 51.5642C94.402 51.1841 94.1623 50.8407 93.8626 50.5542L89.4709 55ZM22.1585 69.1917C21.7231 68.4861 21.0252 67.9824 20.2184 67.7913C19.4116 67.6003 18.562 67.7375 17.8564 68.1729C17.1508 68.6083 16.6471 69.3062 16.456 70.113C16.265 70.9198 16.4022 71.7694 16.8376 72.475L22.1585 69.1917ZM49.5126 90.625C70.6043 90.625 87.7626 73.7167 87.7626 52.7792H81.5126C81.5126 70.1958 67.221 84.375 49.5126 84.375V90.625ZM87.7626 52.7792V45.8333H81.5126V52.7792H87.7626ZM82.4459 43.6125L75.4168 50.5542L79.8126 55L86.8376 48.0542L82.4459 43.6125ZM82.4459 48.0542L89.4709 55L93.8626 50.5542L86.8376 43.6125L82.4459 48.0542ZM16.8335 72.4708C20.2769 78.0347 25.0876 82.6242 30.8073 85.8021C36.5271 88.98 42.9652 90.6403 49.5085 90.625V84.375C44.0319 84.3903 38.6427 83.0029 33.8544 80.3451C29.066 77.6872 25.0422 73.8475 22.1585 69.1917L16.8335 72.4708Z" fill="#fad3b4"/>
</svg>
