<svg width="100" height="100" viewBox="0 0 100 100" fill="#FAD3B4" xmlns="http://www.w3.org/2000/svg">
<path d="M50.0488 38.1445C47.1289 38.1445 44.3945 39.2773 42.3242 41.3477C40.2637 43.418 39.1211 46.1523 39.1211 49.0723C39.1211 51.9922 40.2637 54.7266 42.3242 56.7969C44.3945 58.8574 47.1289 60 50.0488 60C52.9687 60 55.7031 58.8574 57.7734 56.7969C59.834 54.7266 60.9765 51.9922 60.9765 49.0723C60.9765 46.1523 59.834 43.418 57.7734 41.3477C56.7622 40.3287 55.5586 39.5208 54.2326 38.9709C52.9065 38.421 51.4844 38.1401 50.0488 38.1445ZM90.3125 61.1426L83.9258 55.6836C84.2285 53.8281 84.3847 51.9336 84.3847 50.0488C84.3847 48.1641 84.2285 46.2598 83.9258 44.4141L90.3125 38.9551C90.7949 38.5421 91.1403 37.992 91.3025 37.3779C91.4647 36.7639 91.4362 36.115 91.2207 35.5176L91.1328 35.2637C89.3751 30.3485 86.7414 25.7925 83.3594 21.8164L83.1836 21.6113C82.7729 21.1284 82.2255 20.7813 81.6136 20.6157C81.0017 20.4501 80.354 20.4738 79.7558 20.6836L71.8262 23.5059C68.8965 21.1035 65.6348 19.209 62.0996 17.8906L60.5664 9.59961C60.4507 8.97502 60.1477 8.40041 59.6977 7.95213C59.2477 7.50384 58.6719 7.20309 58.0469 7.08984L57.7832 7.04102C52.7051 6.12305 47.3535 6.12305 42.2754 7.04102L42.0117 7.08984C41.3867 7.20309 40.8109 7.50384 40.3609 7.95213C39.9108 8.40041 39.6078 8.97502 39.4922 9.59961L37.9492 17.9297C34.4475 19.2585 31.1854 21.1484 28.291 23.5254L20.3027 20.6836C19.7047 20.4721 19.0565 20.4476 18.4443 20.6133C17.832 20.779 17.2847 21.1271 16.875 21.6113L16.6992 21.8164C13.3231 25.7967 10.6901 30.3516 8.92577 35.2637L8.83788 35.5176C8.39842 36.7383 8.75975 38.1055 9.74608 38.9551L16.2109 44.4727C15.9082 46.3086 15.7617 48.1836 15.7617 50.0391C15.7617 51.9141 15.9082 53.7891 16.2109 55.6055L9.76561 61.1231C9.28315 61.5361 8.93784 62.0862 8.77561 62.7002C8.61338 63.3142 8.64191 63.9631 8.85741 64.5605L8.9453 64.8145C10.7129 69.7266 13.3203 74.2676 16.7187 78.2617L16.8945 78.4668C17.3052 78.9497 17.8526 79.2968 18.4645 79.4624C19.0764 79.628 19.7241 79.6044 20.3223 79.3945L28.3105 76.5527C31.2207 78.9453 34.4629 80.8398 37.9687 82.1484L39.5117 90.4785C39.6274 91.1031 39.9304 91.6777 40.3804 92.126C40.8304 92.5743 41.4062 92.875 42.0312 92.9883L42.2949 93.0371C47.423 93.96 52.6746 93.96 57.8027 93.0371L58.0664 92.9883C58.6914 92.875 59.2672 92.5743 59.7172 92.126C60.1673 91.6777 60.4702 91.1031 60.5859 90.4785L62.1191 82.1875C65.6543 80.8594 68.916 78.9746 71.8457 76.5723L79.7754 79.3945C80.3734 79.606 81.0216 79.6306 81.6338 79.4648C82.2461 79.2991 82.7934 78.951 83.2031 78.4668L83.3789 78.2617C86.7773 74.2481 89.3847 69.7266 91.1523 64.8145L91.2402 64.5605C91.6601 63.3496 91.2988 61.9922 90.3125 61.1426ZM50.0488 66.2402C40.5664 66.2402 32.8808 58.5547 32.8808 49.0723C32.8808 39.5898 40.5664 31.9043 50.0488 31.9043C59.5312 31.9043 67.2168 39.5898 67.2168 49.0723C67.2168 58.5547 59.5312 66.2402 50.0488 66.2402Z" fill="#FAD3B4"/>
</svg>
